<?xml version="1.0" standalone="no"?>
<!DOCTYPE svg PUBLIC "-//W3C//DTD SVG 20010904//EN"
 "http://www.w3.org/TR/2001/REC-SVG-20010904/DTD/svg10.dtd">
<svg version="1.0" xmlns="http://www.w3.org/2000/svg"
 width="500.000000pt" height="500.000000pt" viewBox="0 0 500.000000 500.000000"
 preserveAspectRatio="xMidYMid meet">

<g transform="translate(0.000000,500.000000) scale(0.100000,-0.100000)"
fill="#000000" stroke="none">
<path d="M3494 3521 c-17 -10 -36 -34 -43 -52 -13 -37 -15 -149 -3 -149 5 0
34 38 66 84 39 57 57 92 54 107 -4 31 -34 35 -74 10z"/>
<path d="M3621 3516 c-17 -20 -6 -36 25 -36 21 0 25 4 22 22 -4 27 -30 35 -47
14z"/>
<path d="M1257 3480 c-91 -11 -185 -43 -286 -96 -168 -89 -295 -220 -376 -387
-57 -120 -75 -190 -80 -317 -4 -90 -3 -97 5 -51 16 87 68 230 113 310 53 93
186 236 279 297 131 88 308 143 456 144 l73 0 -3 53 -3 52 -55 1 c-30 1 -85
-2 -123 -6z"/>
<path d="M3568 3408 c-26 -19 -57 -47 -70 -63 -21 -26 -21 -28 -3 -21 11 5 47
15 79 23 84 20 98 29 94 61 -5 41 -43 40 -100 0z"/>
<path d="M3500 3292 c0 -5 12 -14 27 -21 28 -13 51 -2 39 18 -8 13 -66 15 -66
3z"/>
<path d="M2912 3234 c-10 -18 -3 -74 9 -74 5 0 9 10 10 23 0 12 2 32 3 45 3
25 -9 29 -22 6z"/>
<path d="M3130 3236 c0 -8 -7 -13 -16 -12 -21 1 -39 -27 -31 -48 4 -10 18 -16
37 -16 29 0 30 2 30 45 0 25 -4 45 -10 45 -5 0 -10 -6 -10 -14z m0 -40 c0 -21
-21 -31 -30 -15 -5 7 -6 17 -4 21 9 14 34 9 34 -6z"/>
<path d="M3214 3235 c-4 -8 -9 -13 -14 -10 -4 2 -15 -1 -25 -9 -27 -20 -11
-56 26 -56 28 0 29 2 29 45 0 46 -6 57 -16 30z m-4 -46 c0 -24 -23 -21 -28 4
-2 10 3 17 12 17 10 0 16 -9 16 -21z"/>
<path d="M1193 3211 c-28 -9 -68 -30 -87 -45 -43 -32 -94 -116 -102 -168 -6
-34 -9 -37 -42 -40 -29 -2 -40 -10 -57 -38 -27 -47 -29 -205 -3 -262 l17 -38
70 0 c54 0 71 -3 71 -14 0 -15 -21 -26 -52 -26 -19 0 -20 -5 -16 -208 3 -235
6 -245 81 -284 35 -19 58 -23 142 -22 83 0 109 4 153 23 l52 23 0 254 0 254
74 0 73 0 0 -107 c1 -181 51 -291 177 -387 49 -37 156 -76 211 -76 32 0 32 0
39 61 12 120 11 123 -37 136 -185 50 -245 286 -105 420 45 43 101 65 168 65
245 0 337 -316 132 -452 -25 -17 -64 -33 -85 -37 l-40 -6 7 -60 c3 -33 6 -75
6 -93 0 -33 2 -34 38 -34 137 1 279 92 339 221 16 32 30 58 33 58 3 1 13 -20
24 -45 51 -124 215 -233 352 -234 30 0 31 2 38 53 3 28 6 70 6 92 0 40 -1 41
-44 53 -24 6 -63 26 -87 45 -188 143 -86 439 151 439 100 0 189 -58 226 -148
20 -48 17 -151 -5 -199 -30 -66 -102 -126 -168 -140 l-33 -7 0 -95 0 -96 60 6
c127 11 258 103 314 220 l27 58 35 -70 c40 -80 93 -132 173 -170 49 -23 69
-26 158 -26 117 0 134 8 107 50 -15 24 -16 28 -2 42 14 13 17 12 33 -14 31
-52 80 -77 160 -81 76 -4 116 8 163 52 56 50 91 178 59 214 -44 48 -47 77 -47
404 0 185 -4 328 -10 350 -25 90 -101 138 -220 138 -82 0 -132 -17 -187 -64
-28 -24 -31 -30 -22 -59 5 -17 9 -49 9 -69 0 -36 2 -38 31 -38 49 0 116 -21
135 -41 25 -28 12 -32 -47 -15 -70 21 -211 21 -275 -1 -103 -34 -205 -126
-235 -212 -6 -17 -14 -31 -17 -31 -4 0 -16 21 -26 46 -26 64 -122 164 -189
197 -71 35 -126 46 -217 47 -188 0 -337 -87 -407 -240 l-26 -57 -33 67 c-75
149 -214 230 -400 230 -169 0 -311 -75 -384 -203 l-28 -48 -6 63 -7 63 -132 0
c-89 0 -139 4 -154 13 -45 25 -23 31 95 25 148 -7 196 4 211 49 6 17 11 68 11
114 l0 83 -37 26 c-92 63 -278 85 -390 46z m2560 -683 c-3 -68 -7 -125 -9
-127 -2 -2 -10 -1 -19 2 -12 5 -15 26 -15 107 0 102 9 140 34 140 12 0 13 -23
9 -122z"/>
<path d="M2737 3223 c-13 -12 -7 -33 8 -33 8 0 15 -5 15 -11 0 -6 -7 -9 -15
-5 -8 3 -15 1 -15 -5 0 -14 42 -7 48 9 2 6 -7 16 -20 21 -18 8 -19 10 -5 10
10 1 15 6 12 11 -7 12 -19 13 -28 3z"/>
<path d="M2800 3214 c-20 -23 -7 -49 23 -50 23 -1 27 3 27 26 0 32 -32 47 -50
24z m36 -15 c10 -17 -13 -36 -27 -22 -12 12 -4 33 11 33 5 0 12 -5 16 -11z"/>
<path d="M3020 3215 c-26 -32 15 -75 44 -45 8 9 6 11 -11 6 -12 -4 -24 -2 -28
4 -4 6 4 10 19 10 28 0 33 9 14 28 -16 16 -23 15 -38 -3z"/>
<path d="M3298 3223 c-19 -5 -26 -63 -8 -63 6 0 10 11 10 25 0 34 27 32 33 -2
4 -22 4 -20 3 6 -1 35 -8 42 -38 34z"/>
<path d="M3371 3221 c-19 -12 -9 -55 13 -59 10 -2 23 2 30 8 8 9 6 11 -11 6
-12 -4 -24 -2 -28 4 -4 6 4 10 19 10 14 0 26 4 26 10 0 15 -35 30 -49 21z m26
-17 c-3 -3 -12 -4 -19 -1 -8 3 -5 6 6 6 11 1 17 -2 13 -5z"/>
<path d="M2870 3190 c0 -16 5 -30 10 -30 6 0 10 14 10 30 0 17 -4 30 -10 30
-5 0 -10 -13 -10 -30z"/>
<path d="M3252 3190 c0 -19 2 -27 5 -17 2 9 2 25 0 35 -3 9 -5 1 -5 -18z"/>
<path d="M2963 3193 c9 -2 23 -2 30 0 6 3 -1 5 -18 5 -16 0 -22 -2 -12 -5z"/>
<path d="M1959 2706 c-137 -37 -205 -184 -145 -311 32 -70 115 -135 171 -135
24 0 18 54 -9 87 -28 33 -29 37 -27 166 1 57 5 97 11 97 6 0 10 -44 10 -111 0
-71 4 -108 10 -104 6 3 10 52 10 111 0 63 4 104 10 104 6 0 10 -44 10 -112 0
-143 18 -134 23 12 l3 105 2 -107 c3 -146 22 -153 22 -9 0 67 4 111 10 111 6
0 10 -22 10 -49 0 -26 3 -75 6 -107 6 -55 4 -61 -25 -98 -38 -48 -43 -96 -8
-96 26 0 92 33 125 64 60 54 84 153 58 234 -39 116 -160 181 -277 148z"/>
<path d="M2828 2706 c-65 -18 -111 -56 -142 -118 -46 -93 -29 -195 45 -265 34
-32 95 -63 124 -63 26 0 17 55 -17 110 -25 40 -33 66 -36 114 -4 56 -1 65 23
94 37 44 83 44 119 1 41 -48 38 -118 -7 -204 -20 -37 -31 -71 -29 -88 3 -26 6
-28 35 -21 80 17 147 88 166 176 37 164 -118 309 -281 264z"/>
<path d="M2947 2515 c7 -49 13 -58 13 -19 0 16 -5 36 -10 44 -6 10 -7 2 -3
-25z"/>
<path d="M4460 2447 c0 -88 -77 -284 -154 -391 -160 -224 -437 -376 -686 -376
l-60 0 0 -56 0 -57 94 7 c101 7 223 38 320 81 223 99 414 327 476 569 23 92
37 246 21 246 -6 0 -11 -11 -11 -23z"/>
<path d="M2941 2444 c0 -11 3 -14 6 -6 3 7 2 16 -1 19 -3 4 -6 -2 -5 -13z"/>
</g>
</svg>
